# Blender v2.71 (sub 0) OBJ File: 'house_TWO.blend'
# www.blender.org
mtllib house_TWO.mtl
o Cube
v 1.492606 -0.210965 -1.763389
v 1.492606 -0.210965 1.763389
v -1.492606 -0.210965 1.763389
v -1.492606 -0.210965 -1.763390
v 1.492605 1.789035 -1.763388
v 1.492605 1.789035 1.763390
v -1.492607 1.789035 1.763388
v -1.492607 1.789035 -1.763389
v 0.000000 2.798934 -1.763389
v -0.000000 2.798934 1.763389
v -1.492606 -0.210965 1.763389
v -1.492607 1.789035 1.763388
v -1.492606 -0.210965 -1.763390
v -1.492606 1.789035 -1.763389
v 1.492606 -0.210965 -1.763389
v 1.492607 1.789035 -1.763388
v 1.492606 -0.210965 1.763389
v 1.492605 1.789035 1.763390
v 0.000000 2.798934 -1.763389
v -1.492606 1.789035 -1.763389
v -0.000001 2.798934 1.763389
v -1.492607 1.789035 1.763388
v 0.000000 2.798934 -1.763389
v 1.492607 1.789035 -1.763388
v -0.000001 2.798934 1.763389
v 1.492605 1.789035 1.763390
vt 0.034116 0.559847
vt 0.034116 0.815658
vt 0.485209 0.815658
vt 0.975988 0.815659
vt 0.785076 0.944830
vt 0.594164 0.815659
vt 0.315074 0.049872
vt 0.513135 0.049872
vt 0.515771 0.430188
vt 0.975989 0.559848
vt 0.594164 0.559848
vt 0.713832 0.430188
vt 0.485209 0.559847
vt 0.317709 0.430188
vt 0.711197 0.049872
vn -1.000000 -0.000000 -0.000000
vn -0.000000 0.000000 1.000000
vn -0.560400 0.828200 -0.000000
vn 0.000000 0.000000 -1.000000
vn 0.560400 0.828200 0.000000
vn 1.000000 -0.000000 0.000000
usemtl Material
s off
f 11/1/1 7/2/1 8/3/1
f 6/4/2 10/5/2 12/6/2
f 22/7/3 21/8/3 9/9/3
f 15/10/4 4/11/4 20/6/4
f 24/12/5 23/9/5 25/8/5
f 1/13/6 16/3/6 18/2/6
f 13/13/1 11/1/1 8/3/1
f 3/11/2 17/10/2 6/4/2
f 14/14/3 22/7/3 9/9/3
f 6/4/2 12/6/2 3/11/2
f 15/10/4 20/6/4 5/4/4
f 26/15/5 24/12/5 25/8/5
f 2/1/6 1/13/6 18/2/6
f 20/6/4 19/5/4 5/4/4
